<svg xmlns="http://www.w3.org/2000/svg" xmlns:xlink="http://www.w3.org/1999/xlink" version="1.1" x="0px" y="0px" viewBox="0 0 100 125" enable-background="new 0 0 100 100" xml:space="preserve"><g><path d="M9.118,52.653c0.986-0.472,2.034-0.432,3.117,0.122c5.128,2.618-0.492,15.204-0.734,15.739   c-0.016,0.035-0.047,0.056-0.071,0.082l1.281,1.173c0.336-1.223,2.41-8.204,6.189-9.776c1.259-0.524,2.569-0.396,3.897,0.381   c3.799,2.221,1.392,13.235,0.916,15.247l1.983,0.788c0.392-1.786,2.11-8.703,5.696-11.089c1.102-0.733,2.285-0.974,3.52-0.717   c6.087,1.272,4.583,12.841,4.227,15.106l2.281,0.277c0.038-1.727,0.414-8.485,3.899-11.763c1.386-1.305,3.098-1.885,5.099-1.754   c0.89,0.063,1.721,0.561,2.472,1.479c2.507,3.071,3.59,10.368,3.23,13.192l1.874,0.078c-0.136-1.104-1.651-14.813,6.234-16.15   c4.953-0.85,7.863,11.189,8.35,13.376l1.638-0.218c-0.49-1.922-2.397-10.249,0.147-14.292c0.738-1.172,1.791-1.888,3.128-2.126   c5.838-1.015,8.452,10.454,8.77,11.968l1.445-1.028c-0.024-0.033-0.057-0.06-0.068-0.102c-0.404-1.496-3.871-14.672-1.052-16.276   c1.324-0.755,2.63-0.882,3.884-0.384c3.327,1.326,5.176,6.658,5.479,7.597l1.733-1.43c-2.148-6.965-3.833-14.14-4.773-18.629   c-0.444,1.749-1.453,3.425-3.033,5.002c-6.127,6.116-20.136,10.058-35.723,10.058c-0.055,0-0.11-0.001-0.166-0.001   c-18.633,0-34.614-4.73-41.704-12.346c-1.956-2.1-3.124-4.354-3.464-6.613C6.235,48.876,4.722,51.416,3.507,59.01l1.032,1.618   C4.874,59.229,6.29,54.007,9.118,52.653z"/><path d="M90.209,56.639c-1.044-0.418-2.147-0.303-3.278,0.341c-1.687,0.961-0.242,9.196,1.173,14.689   c0.806-5.1,2.789-8.218,7.177-7.87C95.003,62.954,93.214,57.836,90.209,56.639z"/><path d="M11.917,53.398c-0.89-0.455-1.707-0.49-2.497-0.114c-2.51,1.201-3.868,6.151-4.194,7.49   c2.677-1.574,5.224,0.524,5.884,6.877C12.142,65.172,15.89,55.428,11.917,53.398z"/><path d="M9.427,37.679c-0.194,2.714,0.97,5.509,3.367,8.084c6.962,7.478,22.747,12.124,41.193,12.124c0.055,0,0.111,0,0.166,0   c15.41,0,29.225-3.861,35.228-9.853c2.053-2.049,3.094-4.256,3.094-6.56v-0.056c-1.878-8.99-22.479-17.981-41.88-17.981   c-20.082,0-38.522,5.5-41.146,13.943L9.427,37.679z"/><path d="M22.443,60.978c-1.142-0.667-2.212-0.779-3.274-0.339c-3.399,1.413-5.414,8.018-5.768,9.265   c4.151-1.384,7.46,0.027,9.671,5.378C23.968,71.472,25.347,62.675,22.443,60.978z"/><path d="M64.345,65.76c-6.693,1.137-5.91,12.769-5.691,15.046c4.1-5.895,9.063-4.646,13.241-2.208   C71.006,74.528,68.146,65.126,64.345,65.76z"/><path d="M77.613,62.5c-1.151,0.205-2.021,0.797-2.659,1.81c-2.394,3.804-0.478,12.093-0.045,13.804   c3.299-5.382,6.998-6.318,10.632-4.337C85.121,71.906,82.57,61.615,77.613,62.5z"/><path d="M52.346,68.393c-0.623-0.763-1.288-1.175-1.978-1.223c-1.797-0.131-3.331,0.399-4.57,1.563   c-3.25,3.055-3.633,9.64-3.678,11.272c3.643-3.854,7.615-4.028,13.323,0.85C55.722,78.016,54.688,71.262,52.346,68.393z"/><path d="M34.767,65.289c-1.044-0.221-2.049-0.011-2.988,0.613c-3.384,2.252-5.07,9.168-5.413,10.725   c4.77-3.033,8.683-2.293,12.081,2.951C38.775,77.401,40.149,66.413,34.767,65.289z"/></g><text x="0" y="115" fill="#000000" font-size="5px" font-weight="bold" font-family="'Helvetica Neue', Helvetica, Arial-Unicode, Arial, Sans-serif">Created by S. Salinas</text><text x="0" y="120" fill="#000000" font-size="5px" font-weight="bold" font-family="'Helvetica Neue', Helvetica, Arial-Unicode, Arial, Sans-serif">from the Noun Project</text></svg>